<?xml version="1.0" standalone="no"?>
<!DOCTYPE svg PUBLIC "-//W3C//DTD SVG 20010904//EN"
 "http://www.w3.org/TR/2001/REC-SVG-20010904/DTD/svg10.dtd">
<svg version="1.0" xmlns="http://www.w3.org/2000/svg"
 width="225.000000pt" height="225.000000pt" viewBox="0 0 225.000000 225.000000"
 preserveAspectRatio="xMidYMid meet">

<g transform="translate(0.000000,225.000000) scale(0.100000,-0.100000)"
fill="#000000" stroke="none">
<path d="M827 1613 c-3 -5 70 -7 161 -5 308 4 339 8 90 10 -136 1 -249 -1
-251 -5z"/>
<path d="M1330 1597 c0 -11 -12 -17 -42 -20 l-43 -4 43 -1 c30 -1 44 2 49 13
3 9 3 19 -1 22 -3 4 -6 -1 -6 -10z"/>
<path d="M826 1578 c3 -4 23 -8 44 -8 l39 0 4 -62 3 -63 0 65 -1 65 -47 5
c-26 3 -44 2 -42 -2z"/>
<path d="M954 1566 c-3 -7 -4 -42 -2 -77 l3 -64 115 0 115 -1 -112 3 -113 4 0
69 0 69 118 4 117 3 -118 2 c-91 2 -119 -1 -123 -12z"/>
<path d="M848 1423 c12 -2 30 -2 40 0 9 3 -1 5 -23 4 -22 0 -30 -2 -17 -4z"/>
<path d="M1285 1423 c31 -3 51 -15 90 -51 l50 -47 -50 53 c-45 47 -53 52 -90
50 l-40 -1 40 -4z"/>
<path d="M1075 1383 l230 -3 46 -46 c42 -41 50 -45 85 -41 l39 4 -40 1 c-34 2
-48 10 -85 47 l-44 45 -231 -2 -230 -3 230 -2z"/>
<path d="M1520 1287 c4 -41 5 -41 8 -8 2 18 0 37 -5 42 -5 5 -6 -11 -3 -34z"/>
<path d="M618 1293 c17 -2 47 -2 65 0 17 2 3 4 -33 4 -36 0 -50 -2 -32 -4z"/>
<path d="M762 1080 l-2 -225 93 -93 93 -92 224 3 225 2 -225 3 -225 2 -88 88
-87 87 -3 225 -2 225 -3 -225z"/>
<path d="M1835 1270 c10 -11 20 -20 23 -20 3 0 -3 9 -13 20 -10 11 -20 20 -23
20 -3 0 3 -9 13 -20z"/>
<path d="M574 1080 c0 -113 2 -159 3 -102 2 56 2 148 0 205 -1 56 -3 10 -3
-103z"/>
<path d="M722 1078 l-2 -207 -67 -4 -68 -3 68 -2 c47 -1 69 2 73 11 2 7 3 102
1 212 l-2 200 -3 -207z"/>
<path d="M1484 1065 c0 -121 2 -169 3 -107 2 62 2 161 0 220 -1 59 -3 8 -3
-113z"/>
<path d="M1805 1240 c10 -11 20 -20 23 -20 3 0 -3 9 -13 20 -10 11 -20 20 -23
20 -3 0 3 -9 13 -20z"/>
<path d="M1137 1219 c4 -13 8 -18 11 -10 2 7 -1 18 -6 23 -8 8 -9 4 -5 -13z"/>
<path d="M1866 1227 c3 -10 9 -15 12 -12 3 3 0 11 -7 18 -10 9 -11 8 -5 -6z"/>
<path d="M1836 1197 c3 -10 9 -15 12 -12 3 3 0 11 -7 18 -10 9 -11 8 -5 -6z"/>
<path d="M1525 1025 l0 -160 65 -1 65 0 -62 3 -63 4 -3 157 -3 157 1 -160z"/>
<path d="M1854 1035 c0 -77 2 -107 3 -67 2 40 2 103 0 140 -2 37 -3 4 -3 -73z"/>
<path d="M1894 1030 c0 -80 2 -112 3 -72 2 39 2 105 0 145 -1 39 -3 7 -3 -73z"/>
<path d="M427 1093 c18 -2 50 -2 70 0 21 2 7 4 -32 4 -38 0 -55 -2 -38 -4z"/>
<path d="M1010 1031 c0 -6 4 -13 10 -16 6 -3 7 1 4 9 -7 18 -14 21 -14 7z"/>
<path d="M358 828 c5 -5 16 -8 23 -6 8 3 3 7 -10 11 -17 4 -21 3 -13 -5z"/>
<path d="M1125 830 c-16 -7 -17 -9 -3 -9 9 -1 20 4 23 9 7 11 7 11 -20 0z"/>
<path d="M641 823 l95 -4 94 -94 95 -95 247 0 c136 0 249 3 251 8 3 4 -108 6
-246 4 l-252 -3 -95 96 -95 95 -95 -2 -95 -2 96 -3z"/>
<path d="M1553 823 c20 -2 54 -2 75 0 20 2 3 4 -38 4 -41 0 -58 -2 -37 -4z"/>
<path d="M1799 813 c-13 -16 -12 -17 4 -4 16 13 21 21 13 21 -2 0 -10 -8 -17
-17z"/>
<path d="M1780 755 c-14 -8 -20 -14 -14 -15 5 0 19 7 30 15 24 18 16 19 -16 0z"/>
<path d="M1718 733 c6 -2 18 -2 25 0 6 3 1 5 -13 5 -14 0 -19 -2 -12 -5z"/>
</g>
</svg>
