<?xml version="1.0" standalone="no"?>
<!DOCTYPE svg PUBLIC "-//W3C//DTD SVG 20010904//EN"
 "http://www.w3.org/TR/2001/REC-SVG-20010904/DTD/svg10.dtd">
<svg version="1.0" xmlns="http://www.w3.org/2000/svg"
 width="225.000000pt" height="225.000000pt" viewBox="0 0 225.000000 225.000000"
 preserveAspectRatio="xMidYMid meet">

<g transform="translate(0.000000,225.000000) scale(0.100000,-0.100000)"
fill="white" stroke="blue" opacity="1">
<path d="M538 1793 c12 -2 32 -2 45 0 12 2 2 4 -23 4 -25 0 -35 -2 -22 -4z"/>
<path d="M854 1766 c-31 -31 -34 -40 -34 -90 l0 -56 -69 0 -69 0 -4 55 c-3 31
-11 61 -18 68 -10 10 -11 9 -5 -2 4 -8 11 -39 14 -70 l6 -56 75 0 75 0 5 63
c4 54 9 67 33 88 28 24 29 24 262 24 233 0 234 0 262 -24 24 -21 29 -34 33
-88 l5 -63 75 0 75 0 1 43 1 42 -4 -40 -4 -40 -70 0 -69 0 0 56 c0 50 -3 59
-34 90 l-34 34 -237 0 -237 0 -34 -34z"/>
<path d="M1660 1794 c37 -8 88 -9 84 -2 -3 4 -26 7 -52 7 -26 -1 -40 -3 -32
-5z"/>
<path d="M1614 1774 c-18 -14 -18 -15 4 -4 12 6 22 13 22 15 0 8 -5 6 -26 -11z"/>
<path d="M464 1755 c-9 -14 -15 -27 -13 -30 3 -2 12 10 21 26 21 36 15 39 -8
4z"/>
<path d="M1776 1755 c24 -39 24 -40 24 -28 0 6 -9 21 -21 34 l-20 24 17 -30z"/>
<path d="M913 1762 c-6 -4 89 -7 212 -7 123 0 218 3 212 7 -7 4 -102 8 -212 8
-110 0 -205 -4 -212 -8z"/>
<path d="M500 1733 c-16 -20 -20 -38 -18 -72 l3 -46 75 0 75 0 3 46 c2 34 -2
52 -18 72 -12 15 -25 27 -30 27 -5 0 2 -11 15 -25 19 -18 25 -35 25 -70 l0
-45 -70 0 -70 0 0 45 c0 35 6 52 25 70 13 14 20 25 15 25 -5 0 -18 -12 -30
-27z"/>
<path d="M1630 1733 c-16 -20 -20 -38 -18 -72 l3 -46 75 0 75 0 1 45 1 45 -4
-42 -4 -43 -70 0 -69 0 0 45 c0 35 6 52 25 70 13 14 20 25 15 25 -5 0 -18 -12
-30 -27z"/>
<path d="M1711 1757 c2 -1 15 -11 29 -22 l25 -20 -19 23 c-11 12 -24 22 -29
22 -6 0 -8 -1 -6 -3z"/>
<path d="M870 1729 c-7 -11 -10 -23 -7 -25 2 -2 9 7 15 21 14 30 7 33 -8 4z"/>
<path d="M1583 1735 c-3 -9 -3 -18 -1 -21 3 -3 8 4 11 16 6 23 -1 27 -10 5z"/>
<path d="M442 1668 l-2 -47 -42 -3 -43 -3 0 -115 0 -115 43 -3 42 -3 0 -349 0
-349 -42 -3 -43 -3 -3 -112 c-1 -62 1 -113 5 -113 4 0 7 49 5 109 l-3 110 43
3 43 3 0 355 0 355 -42 3 -43 3 0 110 0 109 40 0 c46 0 53 10 47 66 -3 38 -4
37 -5 -8z"/>
<path d="M1804 1660 l1 -45 43 -3 42 -3 0 -109 0 -109 -42 -3 -43 -3 0 -355 0
-355 43 -3 43 -3 -3 -110 c-2 -60 1 -109 5 -109 4 0 6 51 5 113 l-3 112 -42 3
-43 3 0 349 0 349 43 3 42 3 0 115 0 115 -42 3 c-41 3 -42 4 -46 45 l-4 42 1
-45z"/>
<path d="M1392 1660 c0 -19 2 -27 5 -17 2 9 2 25 0 35 -3 9 -5 1 -5 -18z"/>
<path d="M992 1613 c70 -2 187 -2 260 0 73 1 16 3 -127 3 -143 0 -203 -2 -133
-3z"/>
<path d="M394 1566 c-3 -7 -4 -42 -2 -77 l3 -64 730 0 730 0 -727 2 -728 3 0
70 0 70 728 3 727 2 -728 3 c-605 2 -729 0 -733 -12z"/>
<path d="M485 1378 c-3 -7 -4 -168 -3 -358 l3 -345 310 0 310 0 0 355 0 355
-308 3 c-241 2 -309 0 -312 -10z m615 -348 l0 -350 -305 0 -305 0 0 350 0 350
305 0 305 0 0 -350z"/>
<path d="M732 1138 c-7 -7 -11 -28 -11 -47 l2 -36 6 39 c8 55 29 58 34 4 l4
-43 -1 44 c-1 46 -13 60 -34 39z"/>
<path d="M632 1033 c2 -13 15 -19 46 -21 42 -3 42 -4 42 -41 0 -25 6 -43 18
-52 15 -12 16 -12 5 1 -6 8 -13 33 -15 55 -3 39 -4 40 -46 43 -33 2 -42 7 -38
18 3 8 1 14 -5 14 -6 0 -9 -8 -7 -17z"/>
<path d="M846 1036 c4 -11 -4 -16 -33 -19 l-38 -4 43 -1 c36 -2 42 1 42 18 0
11 -4 20 -10 20 -5 0 -7 -6 -4 -14z"/>
<path d="M763 960 c0 -25 2 -35 4 -22 2 12 2 32 0 45 -2 12 -4 2 -4 -23z"/>
<path d="M1145 1378 c-3 -7 -4 -168 -3 -358 l3 -345 310 0 310 0 0 355 0 355
-308 3 c-241 2 -309 0 -312 -10z m615 -348 l0 -350 -305 0 -305 0 0 350 0 350
305 0 305 0 0 -350z"/>
<path d="M1390 1030 c0 -20 5 -21 112 -18 98 3 113 5 116 21 2 9 -1 17 -7 17
-6 0 -8 -7 -5 -15 5 -13 -10 -15 -101 -15 -91 0 -106 2 -101 15 3 8 1 15 -4
15 -6 0 -10 -9 -10 -20z"/>
<path d="M394 626 c-3 -7 -3 -40 -1 -72 l3 -59 2 67 2 68 728 3 727 2 -728 3
c-606 2 -728 0 -733 -12z"/>
<path d="M763 483 c203 -2 531 -2 730 0 199 1 34 2 -368 2 -401 0 -564 -1
-362 -2z"/>
</g>
</svg>
