<?xml version="1.0" standalone="no"?>
<!DOCTYPE svg PUBLIC "-//W3C//DTD SVG 20010904//EN"
 "http://www.w3.org/TR/2001/REC-SVG-20010904/DTD/svg10.dtd">
<svg version="1.0" xmlns="http://www.w3.org/2000/svg"
 width="300.000000pt" height="168.000000pt" viewBox="0 0 300.000000 168.000000"
 preserveAspectRatio="xMidYMid meet">

<g transform="translate(0.000000,168.000000) scale(0.100000,-0.100000)"
fill="#000000" stroke="none">
<path d="M1386 1090 c-39 -12 -64 -37 -92 -92 -23 -45 -27 -48 -62 -48 -21 0
-43 -5 -50 -12 -15 -15 -15 -51 0 -66 8 -8 11 -52 9 -137 -2 -86 1 -131 9
-141 15 -18 103 -19 118 -1 5 6 12 23 14 37 l3 25 138 3 c113 2 137 5 137 17
0 13 -24 15 -149 15 l-148 0 -7 -40 c-6 -39 -8 -40 -45 -40 -37 0 -39 2 -45
38 -13 81 -7 148 19 196 l24 46 -30 0 c-24 0 -30 4 -27 18 2 12 15 18 48 20
43 4 46 6 70 55 34 71 68 87 183 87 71 0 87 3 87 15 0 12 -16 15 -87 14 -49 0
-101 -5 -117 -9z"/>
<path d="M1647 1080 c-50 -40 -57 -133 -11 -170 11 -10 14 -45 14 -171 0 -135
2 -159 15 -159 13 0 15 26 15 170 0 131 -3 171 -14 177 -17 11 -36 47 -36 71
0 11 9 30 20 43 l19 24 1 -47 c0 -54 26 -82 64 -69 17 7 22 18 24 55 3 49 15
58 32 27 17 -33 11 -71 -15 -97 -25 -25 -25 -27 -25 -189 0 -140 2 -165 15
-165 13 0 15 24 15 157 0 146 1 158 21 179 13 14 23 41 26 68 5 42 3 48 -30
81 -19 19 -40 35 -46 35 -7 0 -11 -21 -11 -54 0 -33 -5 -58 -13 -65 -21 -17
-27 -3 -27 61 0 65 -10 72 -53 38z"/>
<path d="M1288 829 c-25 -14 -24 -65 1 -79 34 -17 106 -12 125 9 21 23 14 57
-12 65 -44 12 -99 15 -114 5z m104 -35 c19 -12 -6 -24 -48 -24 -38 0 -44 3
-44 21 0 20 4 21 42 15 22 -4 45 -9 50 -12z"/>
</g>
</svg>
