<?xml version="1.0" standalone="no"?>
<!DOCTYPE svg PUBLIC "-//W3C//DTD SVG 20010904//EN"
 "http://www.w3.org/TR/2001/REC-SVG-20010904/DTD/svg10.dtd">
<svg version="1.0" xmlns="http://www.w3.org/2000/svg"
 width="800.000000pt" height="800.000000pt" viewBox="0 0 800.000000 800.000000"
 preserveAspectRatio="xMidYMid meet">

<g transform="translate(0.000000,800.000000) scale(0.100000,-0.100000)"
fill="#000000" stroke="none">
<path d="M3935 6640 c-133 -20 -245 -74 -335 -160 -103 -99 -154 -250 -131
-383 24 -140 127 -278 247 -334 42 -19 232 -73 409 -115 23 -6 54 -25 77 -48
32 -32 38 -44 38 -80 0 -55 -28 -99 -81 -129 -36 -20 -51 -23 -118 -19 -92 5
-145 28 -292 123 l-104 67 -117 -124 c-65 -67 -118 -128 -118 -135 0 -21 152
-132 245 -178 130 -65 224 -87 370 -88 281 -1 470 96 563 290 37 77 37 79 37
203 0 120 -1 128 -32 193 -41 85 -118 162 -209 207 -36 18 -123 46 -192 62
-223 53 -263 67 -299 103 -28 28 -33 40 -33 80 0 40 5 52 33 80 81 81 241 71
399 -25 37 -22 71 -40 76 -40 15 0 223 231 220 243 -7 21 -170 125 -244 157
-40 16 -98 37 -130 45 -61 16 -192 18 -279 5z"/>
<path d="M5344 6640 c-139 -25 -266 -92 -369 -195 -137 -137 -205 -301 -223
-535 -18 -220 45 -458 157 -597 51 -63 174 -164 244 -200 232 -117 510 -101
729 44 68 45 152 128 178 177 13 24 13 29 0 36 -8 5 -80 51 -159 103 l-144 94
-61 -62 c-94 -95 -200 -119 -323 -73 -147 55 -233 207 -233 413 0 201 70 328
222 404 103 52 200 39 298 -39 22 -17 48 -46 60 -65 12 -19 26 -35 30 -35 14
0 313 195 317 206 6 17 -105 141 -168 188 -72 54 -163 99 -245 121 -71 20
-240 27 -310 15z"/>
<path d="M2459 6625 c-299 -73 -504 -332 -549 -691 -20 -159 19 -364 100 -530
32 -67 55 -96 121 -158 217 -204 443 -257 712 -169 226 75 387 250 459 500 20
68 23 100 22 253 0 162 -2 182 -28 264 -73 241 -217 415 -405 491 -127 52
-312 69 -432 40z m293 -395 c123 -58 198 -205 198 -390 0 -195 -72 -336 -205
-400 -39 -19 -67 -24 -130 -24 -71 -1 -86 2 -134 29 -135 75 -218 267 -193
450 25 186 101 304 229 351 54 21 175 12 235 -16z"/>
<path d="M522 6611 c-9 -5 -12 -192 -10 -772 l3 -764 425 -3 c469 -3 504 0
615 53 170 81 268 258 237 425 -23 125 -96 236 -187 282 -22 11 -42 22 -44 24
-2 2 26 35 61 73 90 95 121 195 99 316 -33 179 -164 316 -336 353 -58 12 -845
24 -863 13z m735 -341 c41 -25 63 -59 70 -108 7 -55 -12 -107 -50 -134 -30
-22 -41 -23 -207 -23 l-175 0 -3 129 c-1 72 0 136 2 143 4 10 44 13 168 13
144 0 167 -2 195 -20z m54 -604 c60 -41 84 -116 58 -183 -13 -35 -47 -72 -76
-84 -27 -10 -375 -15 -391 -5 -13 8 -18 277 -5 289 3 4 90 7 192 7 181 0 187
-1 222 -24z"/>
<path d="M6387 6613 l-177 -3 2 -773 3 -772 205 0 205 0 3 303 2 302 230 0
230 0 2 -297 3 -298 205 0 205 0 3 766 c2 609 0 768 -10 771 -7 2 -98 1 -203
-2 l-190 -5 -3 -282 -2 -283 -240 0 -240 0 0 284 c0 250 -2 285 -16 290 -9 3
-21 5 -27 4 -7 -1 -92 -4 -190 -5z"/>
<path d="M4894 4637 c-2 -7 -3 -65 -2 -128 l3 -114 123 -3 122 -3 0 131 0 130
-120 0 c-90 0 -122 -3 -126 -13z"/>
<path d="M924 4550 c-191 -28 -358 -146 -399 -282 -27 -91 -15 -228 27 -311
27 -55 87 -110 149 -140 30 -13 137 -44 239 -66 217 -49 319 -83 354 -118 54
-54 43 -148 -24 -206 -53 -45 -98 -57 -212 -57 -161 0 -275 45 -363 143 -24
26 -48 47 -53 47 -17 0 -197 -130 -200 -144 -4 -16 61 -95 113 -137 50 -40
180 -102 260 -124 184 -49 427 -20 596 72 143 77 219 245 189 413 -14 80 -37
125 -89 177 -76 75 -185 117 -462 177 -161 35 -226 61 -250 100 -24 39 -24 99
-1 138 21 36 118 84 188 93 123 15 261 -39 348 -137 28 -32 56 -56 62 -54 30
11 184 142 184 155 0 8 -33 47 -73 86 -148 147 -355 208 -583 175z"/>
<path d="M2225 4249 c-182 -18 -341 -137 -410 -307 -49 -121 -51 -332 -5 -466
82 -238 319 -373 589 -336 106 14 178 41 262 96 61 40 169 143 169 161 0 5
-47 34 -105 67 l-106 58 -50 -47 c-75 -70 -126 -90 -229 -90 -97 1 -162 24
-217 77 -32 31 -68 103 -75 148 l-3 25 390 5 390 5 -3 45 c-1 25 -9 86 -17
135 -49 298 -266 456 -580 424z m166 -210 c56 -19 100 -59 125 -113 41 -88 55
-83 -210 -91 -129 -4 -239 -4 -244 -1 -21 13 19 105 65 148 63 60 179 85 264
57z"/>
<path d="M5815 4250 c-208 -28 -372 -179 -431 -397 -18 -68 -19 -227 -3 -305
31 -146 129 -279 254 -345 216 -113 453 -83 614 77 59 59 116 152 108 174 -5
13 -183 116 -201 116 -6 0 -25 -26 -42 -58 -57 -106 -161 -157 -271 -133 -76
18 -131 63 -171 141 -62 123 -64 247 -5 365 32 65 57 92 117 122 42 21 60 24
121 21 100 -5 155 -43 221 -154 10 -17 18 -15 115 29 57 26 105 51 107 57 6
16 -75 135 -118 174 -104 94 -257 137 -415 116z"/>
<path d="M6925 4250 c-220 -30 -373 -167 -431 -383 -18 -68 -17 -234 1 -321
40 -189 155 -319 339 -384 58 -21 89 -25 176 -26 124 0 203 19 305 72 68 36
215 163 215 186 0 9 -187 126 -202 126 -2 0 -27 -22 -55 -49 -63 -61 -129 -85
-233 -85 -130 0 -212 52 -266 168 -43 93 -76 85 364 88 l387 3 -2 60 c-4 92
-31 213 -63 282 -87 189 -303 295 -535 263z m176 -215 c69 -25 124 -88 142
-166 l7 -26 -241 -8 c-132 -4 -243 -5 -246 -2 -8 9 15 70 46 119 55 86 181
122 292 83z"/>
<path d="M3533 4240 c-71 -15 -130 -46 -177 -95 l-45 -48 -3 64 -3 64 -123 3
-122 3 2 -528 3 -528 123 -3 122 -3 0 275 c0 160 5 296 11 326 24 113 112 189
245 213 l69 12 0 125 0 125 -30 2 c-16 1 -49 -3 -72 -7z"/>
<path d="M3740 4223 c0 -12 321 -1017 332 -1036 8 -16 23 -17 145 -15 l135 3
169 515 c93 283 169 521 169 528 0 9 -32 12 -129 12 l-129 0 -11 -32 c-5 -18
-51 -175 -102 -348 -50 -173 -95 -319 -99 -324 -9 -9 -14 8 -147 444 l-78 255
-128 3 c-70 1 -127 -1 -127 -5z"/>
<path d="M4895 4218 c-3 -7 -4 -245 -3 -528 l3 -515 123 -3 122 -3 0 531 0
530 -120 0 c-87 0 -122 -3 -125 -12z"/>
<path d="M3920 2708 c-257 -26 -505 -172 -650 -382 -47 -70 -107 -202 -131
-291 -32 -115 -32 -335 0 -450 87 -322 334 -570 650 -652 119 -31 306 -35 415
-9 159 38 298 112 418 225 193 181 288 398 288 657 0 169 -43 328 -127 474
-47 81 -217 253 -295 298 -180 106 -373 150 -568 130z m267 -123 c287 -66 518
-295 593 -589 25 -98 27 -256 4 -359 -20 -94 -100 -256 -163 -334 -149 -182
-369 -285 -611 -285 -233 0 -428 85 -587 255 -401 429 -201 1136 368 1301 127
37 263 41 396 11z"/>
<path d="M3655 2388 c-129 -69 -250 -234 -301 -408 -28 -97 -26 -253 5 -350
48 -156 152 -302 269 -380 l47 -31 5 153 5 153 325 0 325 0 3 -152 c1 -84 5
-153 8 -153 10 0 88 57 136 99 69 61 143 178 174 274 22 69 26 101 27 202 1
191 -48 331 -160 454 -64 72 -148 141 -169 141 -11 0 -14 -31 -16 -152 l-3
-153 -325 0 -325 0 -5 157 c-5 153 -5 156 -25 146z m-66 -578 c-3 -418 -2
-414 -71 -300 -64 106 -82 181 -76 319 4 86 11 131 27 173 24 63 97 178 113
178 6 0 9 -131 7 -370z m896 323 c117 -161 131 -403 34 -594 -19 -39 -67 -99
-77 -99 -4 0 -7 166 -7 370 0 203 3 370 7 370 4 0 23 -21 43 -47z m-145 -328
l0 -175 -327 2 -328 3 -3 160 c-1 87 0 165 2 172 4 10 74 13 331 13 l325 0 0
-175z"/>
<path d="M7924 2654 c-18 -14 -18 -15 4 -4 12 6 22 13 22 15 0 8 -5 6 -26 -11z"/>
<path d="M80 2656 c0 -3 9 -10 20 -16 11 -6 20 -8 20 -6 0 3 -9 10 -20 16 -11
6 -20 8 -20 6z"/>
<path d="M7714 2524 c-18 -14 -18 -15 4 -4 12 6 22 13 22 15 0 8 -5 6 -26 -11z"/>
<path d="M420 2446 c0 -3 9 -10 20 -16 11 -6 20 -8 20 -6 0 3 -9 10 -20 16
-11 6 -20 8 -20 6z"/>
<path d="M7534 2414 c-18 -14 -18 -15 4 -4 12 6 22 13 22 15 0 8 -5 6 -26 -11z"/>
<path d="M470 2416 c0 -3 9 -10 20 -16 11 -6 20 -8 20 -6 0 3 -9 10 -20 16
-11 6 -20 8 -20 6z"/>
<path d="M7374 2314 c-18 -14 -18 -15 4 -4 12 6 22 13 22 15 0 8 -5 6 -26 -11z"/>
<path d="M630 2316 c0 -3 9 -10 20 -16 11 -6 20 -8 20 -6 0 3 -9 10 -20 16
-11 6 -20 8 -20 6z"/>
<path d="M7324 2284 c-18 -14 -18 -15 4 -4 12 6 22 13 22 15 0 8 -5 6 -26 -11z"/>
<path d="M680 2286 c0 -3 9 -10 20 -16 11 -6 20 -8 20 -6 0 3 -9 10 -20 16
-11 6 -20 8 -20 6z"/>
<path d="M7114 2154 c-18 -14 -18 -15 4 -4 12 6 22 13 22 15 0 8 -5 6 -26 -11z"/>
<path d="M890 2156 c0 -3 9 -10 20 -16 11 -6 20 -8 20 -6 0 3 -9 10 -20 16
-11 6 -20 8 -20 6z"/>
<path d="M7034 2104 c-18 -14 -18 -15 4 -4 12 6 22 13 22 15 0 8 -5 6 -26 -11z"/>
<path d="M1020 2076 c0 -3 9 -10 20 -16 11 -6 20 -8 20 -6 0 3 -9 10 -20 16
-11 6 -20 8 -20 6z"/>
<path d="M6904 2024 c-18 -14 -18 -15 4 -4 12 6 22 13 22 15 0 8 -5 6 -26 -11z"/>
<path d="M1100 2026 c0 -3 9 -10 20 -16 11 -6 20 -8 20 -6 0 3 -9 10 -20 16
-11 6 -20 8 -20 6z"/>
<path d="M6824 1974 c-18 -14 -18 -15 4 -4 12 6 22 13 22 15 0 8 -5 6 -26 -11z"/>
<path d="M1230 1946 c0 -3 9 -10 20 -16 11 -6 20 -8 20 -6 0 3 -9 10 -20 16
-11 6 -20 8 -20 6z"/>
<path d="M1360 1866 c0 -3 9 -10 20 -16 11 -6 20 -8 20 -6 0 3 -9 10 -20 16
-11 6 -20 8 -20 6z"/>
<path d="M6614 1844 c-18 -14 -18 -15 4 -4 12 6 22 13 22 15 0 8 -5 6 -26 -11z"/>
<path d="M6534 1794 c-18 -14 -18 -15 4 -4 12 6 22 13 22 15 0 8 -5 6 -26 -11z"/>
</g>
</svg>
